<?xml version="1.0" encoding="utf-8"?>
<!-- Generator: Adobe Illustrator 23.0.3, SVG Export Plug-In . SVG Version: 6.00 Build 0)  -->
<svg version="1.1" id="Layer_1" xmlns="http://www.w3.org/2000/svg" xmlns:xlink="http://www.w3.org/1999/xlink" x="0px" y="0px"
	 viewBox="0 0 50 50" style="enable-background:new 0 0 50 50;" xml:space="preserve">
<style type="text/css">
	.st0{fill:url(#light-bulb-18_2_);}
</style>
<linearGradient id="light-bulb-18_2_" gradientUnits="userSpaceOnUse" x1="24.9342" y1="6.1359" x2="25.1243" y2="45.4073">
	<stop  offset="0" style="stop-color:#3DACE9"/>
	<stop  offset="1" style="stop-color:#8A57D3"/>
</linearGradient>
<path id="light-bulb-18_1_" class="st0" d="M29.1,38.17H20.9c-0.57,0-1.03,0.42-1.03,0.94s0.46,0.94,1.03,0.94h8.21
	c0.57,0,1.03-0.42,1.03-0.94S29.67,38.17,29.1,38.17z M29.1,41.94H20.9c-0.57,0-1.03,0.42-1.03,0.94s0.46,0.94,1.03,0.94h8.21
	c0.57,0,1.03-0.42,1.03-0.94S29.67,41.94,29.1,41.94z M29.62,45.7h-9.23l2.44,1.47c0.32,0.26,0.78,0.41,1.26,0.41h1.84
	c0.48,0,0.95-0.15,1.26-0.41L29.62,45.7z M37.31,19.73c0,6.72-6.59,11.26-6.59,16.56h-4.08c-0.01-3.5,1.78-6.38,3.53-9.16
	c1.56-2.49,3.04-4.85,3.04-7.4c0-4.88-4.26-7.1-8.21-7.1c-3.95,0-8.2,2.22-8.2,7.1c0,2.55,1.48,4.91,3.04,7.4
	c1.74,2.78,3.54,5.66,3.53,9.16h-4.08c0-5.3-6.59-9.84-6.59-16.56c0-7.01,6.15-10.86,12.3-10.86C31.15,8.87,37.31,12.73,37.31,19.73
	z M45.51,18.43v2.58h-5.21c0.04-0.42,0.08-0.84,0.08-1.28c0-0.45-0.03-0.87-0.07-1.3H45.51z M23.67,6.1V2.42h2.81v3.7
	c-0.5-0.04-0.99-0.07-1.49-0.07C24.55,6.05,24.11,6.07,23.67,6.1z M15.99,8.54l-2.13-3.65l2.48-1.22l2.13,3.64
	C17.61,7.65,16.78,8.06,15.99,8.54z M37.71,11.8l3.98-2.62l1.64,2.1l-4.22,2.77C38.73,13.24,38.25,12.49,37.71,11.8z M31.53,7.31
	l2.13-3.64l2.48,1.22L34,8.54C33.22,8.06,32.39,7.65,31.53,7.31z M10.88,14.05l-4.21-2.77l1.64-2.1l3.98,2.62
	C11.75,12.49,11.27,13.24,10.88,14.05z M39,25.76l4.83,1.79l-1.05,2.39L37.8,28.1C38.23,27.35,38.64,26.57,39,25.76z M12.11,27.93
	l-4.83,2l-1.15-2.35l4.8-1.98C11.28,26.41,11.68,27.18,12.11,27.93z M9.69,21.01H4.49v-2.58h5.2c-0.04,0.43-0.07,0.85-0.07,1.3
	C9.61,20.17,9.65,20.59,9.69,21.01z"/>
</svg>
