<?xml version="1.0" encoding="utf-8"?>
<!-- Generator: Adobe Illustrator 23.0.3, SVG Export Plug-In . SVG Version: 6.00 Build 0)  -->
<svg version="1.1" id="Layer_1" xmlns="http://www.w3.org/2000/svg" xmlns:xlink="http://www.w3.org/1999/xlink" x="0px" y="0px"
	 viewBox="0 0 50 50" style="enable-background:new 0 0 50 50;" xml:space="preserve">
<style type="text/css">
	.st0{fill:url(#power-on-off-12_1_);}
</style>
<linearGradient id="power-on-off-12_1_" gradientUnits="userSpaceOnUse" x1="9.7477" y1="15.3315" x2="44.3056" y2="35.689">
	<stop  offset="0" style="stop-color:#42A5DB"/>
	<stop  offset="1" style="stop-color:#705DA6"/>
</linearGradient>
<path id="power-on-off-12" class="st0" d="M23.89,29.88c-0.36-1.11,0.05-2.28,0.99-2.96c0.47-0.35,1.01-0.52,1.54-0.52
	c0.53,0,1.05,0.17,1.49,0.53C27.56,25.72,26.5,25,25.4,25c-0.52,0-1.04,0.16-1.51,0.5C22.43,26.58,22.43,28.81,23.89,29.88z
	 M28.26,40.88c1.16,0.4,4.75,1.43,8.91,4.62c2.65-1.95,5.19-3.82,7.71-5.67c-2-2.89-1.45-4.91-3.44-7.79
	c-0.77-1.11-1.47-1.85-2.59-1.85c-0.3,0-0.52,0.04-0.95,0.13l0.7,1.01c0.18,0.25,0.12,0.61-0.13,0.79
	c-0.25,0.18-0.59,0.12-0.76-0.13l-0.62-0.9c-0.18-0.26-0.47-0.41-0.78-0.41c-0.11,0-0.1-0.01-1.62,0.35l0.85,1.23
	c0.17,0.25,0.12,0.61-0.13,0.79c-0.25,0.18-0.59,0.12-0.76-0.13l-0.74-1.06c-0.18-0.26-0.47-0.41-0.77-0.41
	c-0.14,0-0.11-0.01-1.67,0.4l0.9,1.3c0.17,0.26,0.12,0.61-0.13,0.79c-0.24,0.18-0.59,0.12-0.76-0.13l-3.64-5.26
	c-0.48-0.69-1.41-0.86-2.09-0.36c-0.67,0.5-0.83,1.46-0.35,2.15l5.38,7.77c-1.44-0.55-3.67-0.79-4.09,0.75
	C26.44,39.76,27.15,40.49,28.26,40.88z M31.74,10.6l1.99-2.74c4.73,3.39,7.83,9.03,7.83,15.43c0,1.37-0.15,2.71-0.42,4
	c-0.65-0.31-1.41-0.52-2.29-0.52c-0.39,0-0.71,0.04-1.02,0.09c0.27-1.15,0.42-2.34,0.42-3.58C38.25,18.03,35.67,13.37,31.74,10.6z
	 M20.03,21.58V4.5h6.63v17.08H20.03z M24.28,42.03c-0.31,0.02-0.62,0.05-0.93,0.05c-10.06,0-18.22-8.41-18.22-18.79
	c0-6.41,3.12-12.06,7.86-15.45l2.04,2.7c-3.97,2.76-6.59,7.45-6.59,12.75c0,8.48,6.69,15.38,14.91,15.38c0.01,0,0.01,0,0.02,0
	C23.25,39.78,23.52,40.99,24.28,42.03z"/>
</svg>
