<?xml version="1.0" encoding="utf-8"?>
<!-- Generator: Adobe Illustrator 23.0.3, SVG Export Plug-In . SVG Version: 6.00 Build 0)  -->
<svg version="1.1" id="Layer_1" xmlns="http://www.w3.org/2000/svg" xmlns:xlink="http://www.w3.org/1999/xlink" x="0px" y="0px"
	 viewBox="0 0 50 50" style="enable-background:new 0 0 50 50;" xml:space="preserve">
<style type="text/css">
	.st0{fill:url(#circle-3_1_);}
</style>
<linearGradient id="circle-3_1_" gradientUnits="userSpaceOnUse" x1="24.7222" y1="4.0953" x2="25.1467" y2="47.8181">
	<stop  offset="0" style="stop-color:#43A5E7"/>
	<stop  offset="0.1686" style="stop-color:#5493E2"/>
	<stop  offset="0.5113" style="stop-color:#7073DB"/>
	<stop  offset="0.8007" style="stop-color:#8260D6"/>
	<stop  offset="1" style="stop-color:#8859D4"/>
</linearGradient>
<path id="circle-3" class="st0" d="M11.54,36.78l-2.46,2.59c-3.06-3.81-4.92-8.73-4.92-14.11c0-5.38,1.85-10.3,4.92-14.11l2.46,2.59
	c-2.44,3.14-3.91,7.15-3.91,11.52S9.1,33.64,11.54,36.78z M42.23,25.26c0,4.37-1.47,8.38-3.91,11.52l2.46,2.59
	c3.06-3.81,4.92-8.73,4.92-14.11c0-5.38-1.86-10.3-4.92-14.11l-2.46,2.59C40.76,16.88,42.23,20.89,42.23,25.26z M13.99,11.16
	c2.98-2.57,6.79-4.12,10.94-4.12c4.15,0,7.96,1.55,10.94,4.12l2.46-2.59c-3.62-3.22-8.29-5.18-13.4-5.18
	c-5.11,0-9.78,1.95-13.4,5.18L13.99,11.16z M35.87,39.36c-2.98,2.57-6.79,4.12-10.94,4.12c-4.15,0-7.96-1.55-10.94-4.12l-2.46,2.59
	c3.62,3.22,8.29,5.18,13.4,5.18c5.11,0,9.78-1.95,13.4-5.18L35.87,39.36z"/>
</svg>
